<svg width="613" height="351" viewBox="0 0 613 351" fill="none" xmlns="http://www.w3.org/2000/svg">
<path d="M198.624 -1.30153e-05V10.752H0C0 10.752 34.3947 52.7187 57.7813 68.3933C81.5507 84.324 113.515 96.26 138.641 99.5947C158.555 102.24 199.12 98.728 218.996 99.0307C256.344 99.5947 255.868 130.153 255.777 135.247C255.025 177.356 167.264 190.703 167.264 190.703L146.88 221.715V249.555H234.523C234.523 249.555 281.704 232.98 323.191 232.577C368.873 232.135 406.619 249.555 406.619 249.555H493.197L494.261 221.715L480.997 190.137C480.997 190.137 394.708 173.413 396.115 130.72C397.308 94.532 424.493 80.9373 441.385 74.6973C488.792 57.1827 543.135 46.9614 578.105 47.4987C581.444 47.5494 585.639 48.036 589.943 44.2706C592.903 41.68 593.041 37.9146 593.041 37.9146V16.412H598.7V-1.30153e-05H198.624Z" fill="#718CA6"/>
<path d="M178.084 13.8488C178.084 13.8488 177.445 14.0368 176.24 14.3595C175.034 14.6795 173.27 15.1608 171.008 15.7075C169.877 15.9835 168.625 16.2875 167.261 16.6195C165.893 16.9275 164.414 17.2621 162.834 17.6181C159.67 18.3275 156.092 19.0821 152.17 19.8354C144.333 21.3394 135.14 22.8808 125.201 24.0315C122.716 24.3088 120.185 24.5862 117.616 24.8088C115.048 25.0382 112.441 25.2182 109.81 25.3782C107.176 25.5115 104.517 25.6155 101.836 25.6435C101.16 25.6488 100.516 25.6675 99.8065 25.6635L97.8198 25.6368C96.4865 25.6048 95.1065 25.5702 93.7731 25.5088C88.4158 25.2875 83.0985 24.8554 77.8758 24.3688C75.2665 24.1114 72.6825 23.8422 70.1291 23.5635C67.5785 23.2768 65.0611 22.9715 62.5865 22.6675C57.6411 22.0448 52.8678 21.3942 48.3491 20.7248C43.8291 20.0728 39.5705 19.3608 35.6358 18.7315C31.7025 18.1061 28.1078 17.4382 24.9198 16.8755C21.7318 16.3168 18.9638 15.7555 16.6785 15.3222C14.3958 14.8835 12.6078 14.4982 11.3891 14.2502C10.1691 13.9875 9.51979 13.8488 9.51979 13.8488C9.50779 13.8461 9.4998 13.8342 9.50247 13.8222C9.50513 13.8115 9.51579 13.8048 9.52646 13.8062C9.52646 13.8062 10.1891 13.8581 11.4318 13.9541C12.6718 14.0568 14.4918 14.2088 16.8091 14.4021C19.1225 14.6141 21.9358 14.8288 25.1558 15.1368C28.3758 15.4408 32.0131 15.7315 35.9718 16.1222C43.8878 16.8422 53.1265 17.6822 63.0225 18.5835C65.4945 18.7928 68.0065 19.0048 70.5505 19.2208C73.0931 19.4368 75.6678 19.6395 78.2611 19.8302C83.4465 20.2248 88.7158 20.5462 93.9598 20.7555C95.2771 20.8088 96.5505 20.8355 97.8678 20.8608L99.8518 20.8768L101.789 20.8675C104.392 20.8568 106.996 20.7635 109.578 20.6555C112.161 20.5435 114.726 20.4088 117.261 20.2275C119.797 20.0648 122.304 19.8741 124.766 19.6675C129.697 19.2621 134.464 18.7968 138.982 18.3275C143.504 17.8608 147.778 17.3848 151.726 16.9315C155.674 16.4728 159.296 16.0515 162.502 15.6782C165.714 15.2915 168.513 14.9541 170.817 14.6768C175.437 14.1221 178.074 13.8062 178.074 13.8062C178.086 13.8048 178.097 13.8128 178.1 13.8248C178.1 13.8355 178.093 13.8448 178.084 13.8488Z" fill="white"/>
<path d="M154.502 219.947C154.502 219.947 156.247 219.493 159.282 218.647C160.8 218.238 162.633 217.694 164.737 217.094C166.841 216.494 169.197 215.761 171.763 214.971C174.331 214.183 177.094 213.271 179.995 212.27C182.899 211.271 185.942 210.179 189.051 208.967C192.163 207.767 195.338 206.438 198.507 204.993C201.669 203.529 204.833 201.961 207.862 200.197C210.913 198.451 213.773 196.521 216.506 194.398C217.179 193.887 217.842 193.321 218.51 192.793C219.163 192.241 219.827 191.705 220.465 191.143C221.102 190.583 221.742 190.033 222.357 189.462C222.985 188.903 223.601 188.339 224.202 187.769C225.414 186.639 226.577 185.493 227.718 184.371C228.849 183.238 229.943 182.114 231.003 181.013C232.057 179.905 233.074 178.819 234.051 177.758C234.541 177.227 235.019 176.703 235.482 176.185C235.954 175.67 236.411 175.163 236.855 174.661C238.638 172.661 240.252 170.801 241.682 169.146C243.095 167.473 244.326 166.014 245.338 164.811C247.346 162.377 248.493 160.986 248.493 160.986C248.501 160.977 248.514 160.974 248.523 160.982C248.531 160.99 248.534 161.001 248.529 161.009C248.529 161.009 248.335 161.418 247.938 162.167C247.543 162.918 246.958 164.018 246.159 165.385C245.762 166.067 245.322 166.826 244.827 167.643C244.326 168.455 243.778 169.329 243.183 170.259C241.998 172.122 240.608 174.191 239.015 176.394C238.223 177.501 237.375 178.638 236.478 179.799C235.586 180.966 234.634 182.15 233.637 183.355C233.134 183.954 232.626 184.559 232.107 185.175C231.577 185.777 231.039 186.387 230.494 187.003C229.395 188.227 228.247 189.461 227.038 190.675C225.846 191.907 224.579 193.113 223.269 194.305C222.619 194.905 221.938 195.485 221.267 196.081C220.57 196.655 219.891 197.234 219.161 197.802C216.335 200.066 213.193 202.131 209.99 203.935C206.77 205.731 203.466 207.327 200.147 208.717C196.836 210.119 193.519 211.329 190.286 212.406C187.05 213.473 183.894 214.397 180.88 215.191C177.868 215.983 174.999 216.638 172.35 217.217C169.698 217.79 167.248 218.215 165.08 218.598C162.911 218.974 161.009 219.23 159.443 219.447C157.879 219.661 156.642 219.782 155.801 219.874C154.959 219.95 154.509 219.99 154.509 219.99C154.497 219.991 154.486 219.982 154.485 219.971C154.483 219.961 154.493 219.95 154.502 219.947Z" fill="white"/>
<path d="M487.433 220.091C487.433 220.093 487.011 220.059 486.229 219.959C485.448 219.851 484.3 219.701 482.853 219.426C481.407 219.159 479.651 218.811 477.66 218.313C475.667 217.827 473.427 217.229 471.015 216.473C466.187 214.969 460.645 212.875 454.925 210.138C452.065 208.769 449.155 207.253 446.275 205.577C445.552 205.161 444.828 204.742 444.113 204.302C443.395 203.866 442.676 203.431 441.968 202.97C441.263 202.509 440.543 202.066 439.843 201.589L438.788 200.883L438.26 200.527L437.997 200.35L437.713 200.147L436.697 199.417L436.191 199.051L435.673 198.655C434.984 198.125 434.285 197.599 433.635 197.057L432.647 196.25L431.685 195.418C431.041 194.866 430.416 194.302 429.8 193.734C428.557 192.609 427.373 191.446 426.224 190.279C425.072 189.115 423.965 187.942 422.903 186.762C418.645 182.057 415.064 177.365 412.176 173.231C410.728 171.167 409.469 169.229 408.375 167.501C407.272 165.777 406.372 164.238 405.633 162.969C404.892 161.702 404.353 160.679 403.977 159.989C403.608 159.295 403.423 158.915 403.423 158.915C403.369 158.806 403.415 158.675 403.523 158.622C403.617 158.577 403.729 158.605 403.792 158.683C403.792 158.683 404.048 159.013 404.531 159.63C405.015 160.243 405.725 161.143 406.632 162.289C407.536 163.431 408.66 164.802 409.935 166.378C411.217 167.945 412.689 169.694 414.301 171.589C417.535 175.37 421.383 179.706 425.728 184.087C426.82 185.177 427.933 186.278 429.083 187.365C430.235 188.45 431.412 189.531 432.62 190.591C433.223 191.125 433.831 191.653 434.456 192.163C435.072 192.687 435.703 193.191 436.335 193.695C436.967 194.214 437.601 194.683 438.235 195.166L438.712 195.527L439.221 195.89L440.243 196.613L442.248 197.987C442.921 198.454 443.616 198.887 444.299 199.339C445.675 200.222 447.045 201.105 448.432 201.938C449.12 202.362 449.813 202.774 450.509 203.174C451.196 203.586 451.884 203.991 452.577 204.379C453.952 205.169 455.331 205.918 456.688 206.65C462.131 209.565 467.372 211.998 471.944 213.931C474.229 214.895 476.343 215.747 478.233 216.466C480.125 217.173 481.783 217.782 483.161 218.251C484.537 218.717 485.624 219.086 486.371 219.315C487.115 219.543 487.512 219.666 487.512 219.666C487.629 219.699 487.695 219.822 487.66 219.937C487.629 220.038 487.533 220.098 487.433 220.091Z" fill="white"/>
<path d="M238.283 216.212C238.283 216.212 238.638 215.539 239.403 214.33C240.171 213.127 241.318 211.363 242.942 209.238C244.56 207.11 246.603 204.571 249.167 201.85C251.719 199.119 254.746 196.159 258.3 193.204C261.85 190.248 265.912 187.28 270.466 184.528C275.018 181.775 280.059 179.235 285.498 177.139C288.214 176.08 291.028 175.139 293.919 174.328C296.81 173.512 299.772 172.814 302.791 172.275C305.807 171.732 308.872 171.314 311.962 171.056C315.058 170.798 318.151 170.676 321.288 170.687C322.051 170.695 322.798 170.695 323.574 170.719L325.927 170.807C327.479 170.894 329.024 170.988 330.566 171.131C333.65 171.403 336.711 171.826 339.723 172.375C345.751 173.458 351.579 175.108 357.023 177.19C362.47 179.272 367.526 181.799 372.079 184.56C376.634 187.326 380.686 190.322 384.208 193.323C385.964 194.828 387.6 196.323 389.096 197.803C390.591 199.284 391.959 200.735 393.208 202.13C395.711 204.912 397.69 207.506 399.236 209.69C400.79 211.868 401.87 213.674 402.588 214.91C403.302 216.15 403.627 216.842 403.627 216.842C403.632 216.852 403.628 216.864 403.615 216.87C403.606 216.875 403.595 216.871 403.588 216.862C403.587 216.862 403.162 216.232 402.302 215.1C401.448 213.964 400.131 212.346 398.388 210.362C396.638 208.379 394.414 206.067 391.748 203.552C390.411 202.302 388.952 201.007 387.374 199.7C385.799 198.39 384.114 197.047 382.303 195.723C378.694 193.06 374.615 190.42 370.111 188C365.612 185.572 360.682 183.375 355.431 181.563C352.802 180.666 350.1 179.839 347.33 179.142C344.558 178.448 341.726 177.851 338.852 177.374C333.09 176.435 327.198 175.911 321.227 175.896C315.332 175.851 309.392 176.306 303.654 177.244C300.782 177.723 297.95 178.307 295.182 179.015C292.415 179.724 289.711 180.546 287.086 181.454C281.836 183.286 276.908 185.494 272.399 187.915C267.886 190.334 263.787 192.955 260.144 195.58C256.502 198.21 253.296 200.824 250.567 203.276C247.847 205.738 245.559 207.991 243.75 209.92C241.947 211.855 240.571 213.423 239.675 214.527C238.771 215.624 238.32 216.235 238.32 216.235C238.311 216.246 238.299 216.25 238.288 216.24C238.279 216.234 238.276 216.223 238.283 216.212Z" fill="white"/>
<path d="M198.625 13.0344L583.653 15.8611V16.2958L198.625 19.1211V13.0344Z" fill="white"/>
<path d="M200.682 10.419C200.682 10.419 201.058 14.959 200.795 21.767C200.556 28.575 200.238 37.6537 199.918 46.731C199.639 55.8083 199.362 64.887 199.152 71.695C198.966 78.5043 198.843 83.043 198.843 83.043H198.408C198.408 83.043 198.284 78.5043 198.099 71.695C197.89 64.887 197.611 55.8083 197.332 46.731C197.014 37.6537 196.694 28.575 196.455 21.767C196.192 14.959 196.018 10.419 196.018 10.419H200.682Z" fill="white"/>
<path d="M185.388 10.419L182.997 83.043H182.563L180.172 10.419H185.388Z" fill="white"/>
<path d="M406.404 245.125L405.316 221.381L405.256 220.057L406.62 220.077L486.432 221.164V221.598L406.62 222.685L407.923 221.381L406.836 245.125H406.404Z" fill="white"/>
<path d="M155.697 221.164L234.523 220.077L235.891 220.057L235.827 221.381L234.74 243.744H234.305L233.219 221.381L234.523 222.685L155.697 221.599V221.164Z" fill="white"/>
<g filter="url(#filter0_d_20_2920)">
<path d="M112.68 328.344C107.176 328.344 101.864 327.672 96.7438 326.328C91.6878 324.92 87.5598 323.128 84.3598 320.952L90.5998 306.936C93.6078 308.856 97.0638 310.456 100.968 311.736C104.936 312.952 108.872 313.56 112.776 313.56C115.4 313.56 117.512 313.336 119.112 312.888C120.712 312.376 121.864 311.736 122.568 310.968C123.336 310.136 123.72 309.176 123.72 308.088C123.72 306.552 123.016 305.336 121.608 304.44C120.2 303.544 118.376 302.808 116.136 302.232C113.896 301.656 111.4 301.08 108.648 300.504C105.96 299.928 103.24 299.192 100.488 298.296C97.7998 297.4 95.3358 296.248 93.0958 294.84C90.8558 293.368 89.0318 291.48 87.6238 289.176C86.2158 286.808 85.5117 283.832 85.5117 280.248C85.5117 276.216 86.5998 272.568 88.7758 269.304C91.0158 266.04 94.3438 263.416 98.7598 261.432C103.176 259.448 108.68 258.456 115.272 258.456C119.688 258.456 124.008 258.968 128.232 259.992C132.52 260.952 136.328 262.392 139.656 264.312L133.8 278.424C130.6 276.696 127.432 275.416 124.296 274.584C121.16 273.688 118.12 273.24 115.176 273.24C112.552 273.24 110.44 273.528 108.84 274.104C107.24 274.616 106.088 275.32 105.384 276.216C104.68 277.112 104.328 278.136 104.328 279.288C104.328 280.76 105 281.944 106.344 282.84C107.752 283.672 109.576 284.376 111.816 284.952C114.12 285.464 116.616 286.008 119.304 286.584C122.056 287.16 124.776 287.896 127.464 288.792C130.216 289.624 132.712 290.776 134.952 292.248C137.192 293.656 138.984 295.544 140.328 297.912C141.736 300.216 142.44 303.128 142.44 306.648C142.44 310.552 141.32 314.168 139.08 317.496C136.904 320.76 133.608 323.384 129.192 325.368C124.84 327.352 119.336 328.344 112.68 328.344ZM166.806 327V298.584L171.222 310.008L141.174 259.8H161.238L182.934 296.184H171.318L193.11 259.8H211.542L181.59 310.008L185.814 298.584V327H166.806ZM238.586 328.344C233.082 328.344 227.77 327.672 222.65 326.328C217.594 324.92 213.466 323.128 210.266 320.952L216.506 306.936C219.514 308.856 222.97 310.456 226.874 311.736C230.842 312.952 234.778 313.56 238.682 313.56C241.306 313.56 243.418 313.336 245.018 312.888C246.618 312.376 247.77 311.736 248.474 310.968C249.242 310.136 249.626 309.176 249.626 308.088C249.626 306.552 248.922 305.336 247.514 304.44C246.106 303.544 244.282 302.808 242.042 302.232C239.802 301.656 237.306 301.08 234.554 300.504C231.866 299.928 229.146 299.192 226.394 298.296C223.706 297.4 221.242 296.248 219.002 294.84C216.762 293.368 214.938 291.48 213.53 289.176C212.122 286.808 211.418 283.832 211.418 280.248C211.418 276.216 212.506 272.568 214.682 269.304C216.922 266.04 220.25 263.416 224.666 261.432C229.082 259.448 234.586 258.456 241.178 258.456C245.594 258.456 249.914 258.968 254.138 259.992C258.426 260.952 262.234 262.392 265.562 264.312L259.706 278.424C256.506 276.696 253.338 275.416 250.202 274.584C247.066 273.688 244.026 273.24 241.082 273.24C238.458 273.24 236.346 273.528 234.746 274.104C233.146 274.616 231.994 275.32 231.29 276.216C230.586 277.112 230.234 278.136 230.234 279.288C230.234 280.76 230.906 281.944 232.25 282.84C233.658 283.672 235.482 284.376 237.722 284.952C240.026 285.464 242.522 286.008 245.21 286.584C247.962 287.16 250.682 287.896 253.37 288.792C256.122 289.624 258.618 290.776 260.858 292.248C263.098 293.656 264.89 295.544 266.234 297.912C267.642 300.216 268.346 303.128 268.346 306.648C268.346 310.552 267.226 314.168 264.986 317.496C262.81 320.76 259.514 323.384 255.098 325.368C250.746 327.352 245.242 328.344 238.586 328.344ZM290.493 327V274.872H269.853V259.8H330.045V274.872H309.501V327H290.493ZM354.598 285.816H385.798V300.024H354.598V285.816ZM355.942 312.312H391.078V327H337.126V259.8H389.83V274.488H355.942V312.312ZM401.626 327V259.8H417.274L445.114 305.496H436.858L463.93 259.8H479.578L479.77 327H462.298L462.106 286.392H465.082L444.826 320.376H436.378L415.546 286.392H419.194V327H401.626ZM516.836 328.344C511.332 328.344 506.02 327.672 500.9 326.328C495.844 324.92 491.716 323.128 488.516 320.952L494.756 306.936C497.764 308.856 501.22 310.456 505.124 311.736C509.092 312.952 513.028 313.56 516.932 313.56C519.556 313.56 521.668 313.336 523.268 312.888C524.868 312.376 526.02 311.736 526.724 310.968C527.492 310.136 527.876 309.176 527.876 308.088C527.876 306.552 527.172 305.336 525.764 304.44C524.356 303.544 522.532 302.808 520.292 302.232C518.052 301.656 515.556 301.08 512.804 300.504C510.116 299.928 507.396 299.192 504.644 298.296C501.956 297.4 499.492 296.248 497.252 294.84C495.012 293.368 493.188 291.48 491.78 289.176C490.372 286.808 489.668 283.832 489.668 280.248C489.668 276.216 490.756 272.568 492.932 269.304C495.172 266.04 498.5 263.416 502.916 261.432C507.332 259.448 512.836 258.456 519.428 258.456C523.844 258.456 528.164 258.968 532.388 259.992C536.676 260.952 540.484 262.392 543.812 264.312L537.956 278.424C534.756 276.696 531.588 275.416 528.452 274.584C525.316 273.688 522.276 273.24 519.332 273.24C516.708 273.24 514.596 273.528 512.996 274.104C511.396 274.616 510.244 275.32 509.54 276.216C508.836 277.112 508.484 278.136 508.484 279.288C508.484 280.76 509.156 281.944 510.5 282.84C511.908 283.672 513.732 284.376 515.972 284.952C518.276 285.464 520.772 286.008 523.46 286.584C526.212 287.16 528.932 287.896 531.62 288.792C534.372 289.624 536.868 290.776 539.108 292.248C541.348 293.656 543.14 295.544 544.484 297.912C545.892 300.216 546.596 303.128 546.596 306.648C546.596 310.552 545.476 314.168 543.236 317.496C541.06 320.76 537.764 323.384 533.348 325.368C528.996 327.352 523.492 328.344 516.836 328.344Z" fill="black"/>
</g>
<g filter="url(#filter1_d_20_2920)">
<mask id="path-12-outside-1_20_2920" maskUnits="userSpaceOnUse" x="63" y="121" width="516" height="121" fill="black">
<rect fill="white" x="63" y="121" width="516" height="121"/>
<path d="M76.1471 234L122.497 129H151.747L198.247 234H167.347L131.047 143.55H142.747L106.447 234H76.1471ZM101.497 213.6L109.147 191.7H160.447L168.097 213.6H101.497ZM206.667 234V129H231.117L289.017 198.9H277.467V129H306.567V234H282.117L224.217 164.1H235.767V234H206.667ZM359.474 234L314.624 129H346.724L384.524 219.9H365.624L404.324 129H433.724L388.724 234H359.474ZM439.87 234V129H469.57V234H439.87ZM490.7 234V129H520.4V210.45H570.5V234H490.7Z"/>
</mask>
<path d="M76.1471 234L122.497 129H151.747L198.247 234H167.347L131.047 143.55H142.747L106.447 234H76.1471ZM101.497 213.6L109.147 191.7H160.447L168.097 213.6H101.497ZM206.667 234V129H231.117L289.017 198.9H277.467V129H306.567V234H282.117L224.217 164.1H235.767V234H206.667ZM359.474 234L314.624 129H346.724L384.524 219.9H365.624L404.324 129H433.724L388.724 234H359.474ZM439.87 234V129H469.57V234H439.87ZM490.7 234V129H520.4V210.45H570.5V234H490.7Z" fill="#365470"/>
<path d="M76.1471 234L68.8284 230.769L63.8709 242H76.1471V234ZM122.497 129V121H117.284L115.178 125.769L122.497 129ZM151.747 129L159.062 125.761L156.954 121H151.747V129ZM198.247 234V242H210.539L205.562 230.761L198.247 234ZM167.347 234L159.923 236.98L161.937 242H167.347V234ZM131.047 143.55V135.55H119.216L123.623 146.53L131.047 143.55ZM142.747 143.55L150.171 146.53L154.578 135.55H142.747V143.55ZM106.447 234V242H111.857L113.871 236.98L106.447 234ZM101.497 213.6L93.9446 210.962L90.2285 221.6H101.497V213.6ZM109.147 191.7V183.7H103.468L101.595 189.062L109.147 191.7ZM160.447 191.7L168 189.062L166.127 183.7H160.447V191.7ZM168.097 213.6V221.6H179.366L175.65 210.962L168.097 213.6ZM76.1471 234L83.4657 237.231L129.816 132.231L122.497 129L115.178 125.769L68.8284 230.769L76.1471 234ZM122.497 129V137H151.747V129V121H122.497V129ZM151.747 129L144.432 132.239L190.932 237.239L198.247 234L205.562 230.761L159.062 125.761L151.747 129ZM198.247 234V226H167.347V234V242H198.247V234ZM167.347 234L174.771 231.02L138.471 140.57L131.047 143.55L123.623 146.53L159.923 236.98L167.347 234ZM131.047 143.55V151.55H142.747V143.55V135.55H131.047V143.55ZM142.747 143.55L135.323 140.57L99.0227 231.02L106.447 234L113.871 236.98L150.171 146.53L142.747 143.55ZM106.447 234V226H76.1471V234V242H106.447V234ZM101.497 213.6L109.05 216.238L116.7 194.338L109.147 191.7L101.595 189.062L93.9446 210.962L101.497 213.6ZM109.147 191.7V199.7H160.447V191.7V183.7H109.147V191.7ZM160.447 191.7L152.895 194.338L160.545 216.238L168.097 213.6L175.65 210.962L168 189.062L160.447 191.7ZM168.097 213.6V205.6H101.497V213.6V221.6H168.097V213.6ZM206.667 234H198.667V242H206.667V234ZM206.667 129V121H198.667V129H206.667ZM231.117 129L237.278 123.897L234.878 121H231.117V129ZM289.017 198.9V206.9H306.032L295.178 193.797L289.017 198.9ZM277.467 198.9H269.467V206.9H277.467V198.9ZM277.467 129V121H269.467V129H277.467ZM306.567 129H314.567V121H306.567V129ZM306.567 234V242H314.567V234H306.567ZM282.117 234L275.956 239.103L278.356 242H282.117V234ZM224.217 164.1V156.1H207.202L218.056 169.203L224.217 164.1ZM235.767 164.1H243.767V156.1H235.767V164.1ZM235.767 234V242H243.767V234H235.767ZM206.667 234H214.667V129H206.667H198.667V234H206.667ZM206.667 129V137H231.117V129V121H206.667V129ZM231.117 129L224.956 134.103L282.856 204.003L289.017 198.9L295.178 193.797L237.278 123.897L231.117 129ZM289.017 198.9V190.9H277.467V198.9V206.9H289.017V198.9ZM277.467 198.9H285.467V129H277.467H269.467V198.9H277.467ZM277.467 129V137H306.567V129V121H277.467V129ZM306.567 129H298.567V234H306.567H314.567V129H306.567ZM306.567 234V226H282.117V234V242H306.567V234ZM282.117 234L288.278 228.897L230.378 158.997L224.217 164.1L218.056 169.203L275.956 239.103L282.117 234ZM224.217 164.1V172.1H235.767V164.1V156.1H224.217V164.1ZM235.767 164.1H227.767V234H235.767H243.767V164.1H235.767ZM235.767 234V226H206.667V234V242H235.767V234ZM359.474 234L352.117 237.142L354.192 242H359.474V234ZM314.624 129V121H302.507L307.267 132.142L314.624 129ZM346.724 129L354.11 125.928L352.061 121H346.724V129ZM384.524 219.9V227.9H396.514L391.91 216.828L384.524 219.9ZM365.624 219.9L358.263 216.766L353.523 227.9H365.624V219.9ZM404.324 129V121H399.035L396.963 125.866L404.324 129ZM433.724 129L441.077 132.151L445.856 121H433.724V129ZM388.724 234V242H393.999L396.077 237.151L388.724 234ZM359.474 234L366.831 230.858L321.981 125.858L314.624 129L307.267 132.142L352.117 237.142L359.474 234ZM314.624 129V137H346.724V129V121H314.624V129ZM346.724 129L339.337 132.072L377.137 222.972L384.524 219.9L391.91 216.828L354.11 125.928L346.724 129ZM384.524 219.9V211.9H365.624V219.9V227.9H384.524V219.9ZM365.624 219.9L372.984 223.034L411.684 132.134L404.324 129L396.963 125.866L358.263 216.766L365.624 219.9ZM404.324 129V137H433.724V129V121H404.324V129ZM433.724 129L426.37 125.849L381.37 230.849L388.724 234L396.077 237.151L441.077 132.151L433.724 129ZM388.724 234V226H359.474V234V242H388.724V234ZM439.87 234H431.87V242H439.87V234ZM439.87 129V121H431.87V129H439.87ZM469.57 129H477.57V121H469.57V129ZM469.57 234V242H477.57V234H469.57ZM439.87 234H447.87V129H439.87H431.87V234H439.87ZM439.87 129V137H469.57V129V121H439.87V129ZM469.57 129H461.57V234H469.57H477.57V129H469.57ZM469.57 234V226H439.87V234V242H469.57V234ZM490.7 234H482.7V242H490.7V234ZM490.7 129V121H482.7V129H490.7ZM520.4 129H528.4V121H520.4V129ZM520.4 210.45H512.4V218.45H520.4V210.45ZM570.5 210.45H578.5V202.45H570.5V210.45ZM570.5 234V242H578.5V234H570.5ZM490.7 234H498.7V129H490.7H482.7V234H490.7ZM490.7 129V137H520.4V129V121H490.7V129ZM520.4 129H512.4V210.45H520.4H528.4V129H520.4ZM520.4 210.45V218.45H570.5V210.45V202.45H520.4V210.45ZM570.5 210.45H562.5V234H570.5H578.5V210.45H570.5ZM570.5 234V226H490.7V234V242H570.5V234Z" fill="#F6F6F6" mask="url(#path-12-outside-1_20_2920)"/>
</g>
<defs>
<filter id="filter0_d_20_2920" x="76.3594" y="254.456" width="478.236" height="85.8877" filterUnits="userSpaceOnUse" color-interpolation-filters="sRGB">
<feFlood flood-opacity="0" result="BackgroundImageFix"/>
<feColorMatrix in="SourceAlpha" type="matrix" values="0 0 0 0 0 0 0 0 0 0 0 0 0 0 0 0 0 0 127 0" result="hardAlpha"/>
<feOffset dy="4"/>
<feGaussianBlur stdDeviation="4"/>
<feComposite in2="hardAlpha" operator="out"/>
<feColorMatrix type="matrix" values="0 0 0 0 0 0 0 0 0 0 0 0 0 0 0 0 0 0 0.25 0"/>
<feBlend mode="normal" in2="BackgroundImageFix" result="effect1_dropShadow_20_2920"/>
<feBlend mode="normal" in="SourceGraphic" in2="effect1_dropShadow_20_2920" result="shape"/>
</filter>
<filter id="filter1_d_20_2920" x="59.8711" y="121" width="522.629" height="133" filterUnits="userSpaceOnUse" color-interpolation-filters="sRGB">
<feFlood flood-opacity="0" result="BackgroundImageFix"/>
<feColorMatrix in="SourceAlpha" type="matrix" values="0 0 0 0 0 0 0 0 0 0 0 0 0 0 0 0 0 0 127 0" result="hardAlpha"/>
<feOffset dy="8"/>
<feGaussianBlur stdDeviation="2"/>
<feComposite in2="hardAlpha" operator="out"/>
<feColorMatrix type="matrix" values="0 0 0 0 0 0 0 0 0 0 0 0 0 0 0 0 0 0 0.25 0"/>
<feBlend mode="normal" in2="BackgroundImageFix" result="effect1_dropShadow_20_2920"/>
<feBlend mode="normal" in="SourceGraphic" in2="effect1_dropShadow_20_2920" result="shape"/>
</filter>
</defs>
</svg>
