<svg width="338" height="39" viewBox="0 0 338 39" fill="none" xmlns="http://www.w3.org/2000/svg">
<g clip-path="url(#clip0_16_2957)">
<path d="M20.4584 7.15918V8.22212H0.693359C0.693359 8.22212 4.11586 12.3709 6.44335 13.9205C8.80865 15.4954 11.989 16.6754 14.4895 17.0051C16.4712 17.2666 20.5077 16.9194 22.4856 16.9493C26.202 17.0051 26.1548 20.026 26.1459 20.5296C26.071 24.6925 17.3378 26.0119 17.3378 26.0119L15.3093 29.0778V31.83H24.0308C24.0308 31.83 28.726 30.1914 32.8542 30.1516C37.4001 30.1079 41.1561 31.83 41.1561 31.83H49.7713L49.8775 29.0778L48.5573 25.956C48.5573 25.956 39.9709 24.3027 40.111 20.0821C40.2296 16.5046 42.9352 15.1606 44.6159 14.5437C49.3335 12.8122 54.7402 11.8017 58.2205 11.8549C58.5534 11.8599 58.9701 11.908 59.3987 11.5357C59.6932 11.2796 59.7077 10.9074 59.7077 10.9074V8.78166H60.2704V7.15918H20.4584Z" stroke="white" stroke-width="2" stroke-miterlimit="10" stroke-linecap="round" stroke-linejoin="round"/>
<path d="M18.4142 8.56087C18.4142 8.56087 18.3508 8.57946 18.2307 8.61136C18.1109 8.64299 17.9352 8.69057 17.7101 8.74462C17.5976 8.77191 17.473 8.80196 17.3374 8.83478C17.2014 8.86523 17.054 8.89831 16.8968 8.9335C16.5819 9.00363 16.2258 9.07823 15.8359 9.15271C15.0557 9.3014 14.1408 9.45377 13.152 9.56753C12.9045 9.59494 12.6527 9.62236 12.3972 9.64437C12.1416 9.66705 11.8822 9.68484 11.6204 9.70066C11.3581 9.71384 11.0934 9.72412 10.827 9.72689C10.7593 9.72741 10.6953 9.72926 10.6248 9.72886L10.4271 9.72622C10.2943 9.72306 10.1571 9.71964 10.0245 9.71357C9.49144 9.69169 8.96218 9.64899 8.4426 9.60087C8.18295 9.57543 7.92555 9.54881 7.6716 9.52126C7.41765 9.49293 7.16741 9.46273 6.92128 9.43268C6.42904 9.37112 5.95391 9.3068 5.50439 9.24063C5.0546 9.17617 4.63069 9.10578 4.23914 9.04357C3.84774 8.98175 3.49029 8.91572 3.17293 8.86009C2.85542 8.80486 2.57996 8.74937 2.35268 8.70653C2.12567 8.66316 1.94788 8.62507 1.82634 8.60055C1.70507 8.57458 1.64046 8.56087 1.64046 8.56087C1.63913 8.5606 1.63846 8.55943 1.63873 8.55824C1.63886 8.55718 1.63992 8.55652 1.64099 8.55666C1.64099 8.55666 1.70694 8.56179 1.83059 8.57128C1.95412 8.58143 2.13509 8.59646 2.36556 8.61557C2.59589 8.63653 2.87598 8.65775 3.19627 8.6882C3.51669 8.71825 3.87864 8.74699 4.27244 8.78562C5.06056 8.8568 5.97952 8.93984 6.96428 9.02894C7.21053 9.04963 7.4605 9.07059 7.71365 9.09194C7.96668 9.1133 8.22275 9.13333 8.48108 9.15219C8.99681 9.19121 9.52116 9.22297 10.043 9.24366C10.1742 9.24893 10.3009 9.25157 10.4317 9.25407L10.6296 9.25565L10.8219 9.25473C11.0815 9.25368 11.3402 9.24445 11.5971 9.23378C11.8544 9.2227 12.1095 9.20939 12.3618 9.19146C12.6141 9.17538 12.8635 9.15654 13.1087 9.1361C13.5993 9.09604 14.0734 9.05003 14.5235 9.00363C14.9733 8.95749 15.3985 8.91044 15.7914 8.86562C16.1843 8.82028 16.5445 8.77863 16.864 8.74172C17.1833 8.70349 17.4619 8.67014 17.6912 8.64273C18.1509 8.58789 18.4133 8.55666 18.4133 8.55666C18.4145 8.55652 18.4156 8.55731 18.4158 8.5585C18.416 8.55956 18.4153 8.56047 18.4142 8.56087Z" fill="white"/>
<path d="M16.068 28.9362C16.068 28.9362 16.2419 28.8912 16.5437 28.8077C16.6948 28.7672 16.8772 28.7134 17.0864 28.6541C17.2959 28.5948 17.5303 28.5222 17.786 28.4442C18.0414 28.3663 18.3164 28.2762 18.605 28.1772C18.8939 28.0785 19.1968 27.9705 19.5062 27.8507C19.816 27.7321 20.1319 27.6007 20.4472 27.4577C20.7617 27.313 21.0766 27.158 21.3779 26.9836C21.6816 26.8111 21.9662 26.6202 22.2383 26.4104C22.3049 26.3599 22.371 26.3038 22.4375 26.2516C22.5026 26.1971 22.5687 26.1441 22.632 26.0886C22.6956 26.0333 22.7593 25.9788 22.8203 25.9224C22.8829 25.8672 22.9441 25.8114 23.0041 25.755C23.1245 25.6434 23.2402 25.53 23.3538 25.4192C23.4664 25.3071 23.5754 25.196 23.6809 25.0871C23.7856 24.9775 23.8868 24.8703 23.9842 24.7654C24.0327 24.7129 24.0802 24.6611 24.1266 24.6098C24.1733 24.559 24.2189 24.5089 24.2632 24.4591C24.4406 24.2614 24.6014 24.0775 24.7435 23.914C24.8841 23.7485 25.0064 23.6044 25.1075 23.4855C25.3069 23.2447 25.4212 23.1073 25.4212 23.1073C25.422 23.1063 25.4232 23.1061 25.424 23.1069C25.4248 23.1077 25.4251 23.1087 25.4248 23.1095C25.4248 23.1095 25.4057 23.15 25.3661 23.2241C25.3267 23.2983 25.2684 23.4071 25.1891 23.5421C25.1493 23.6096 25.1056 23.6847 25.0564 23.7654C25.0064 23.8457 24.9519 23.932 24.8926 24.0241C24.7751 24.2082 24.6366 24.4128 24.4778 24.6306C24.3992 24.7399 24.3149 24.8524 24.2254 24.9672C24.1369 25.0825 24.042 25.1996 23.9429 25.3187C23.8929 25.3779 23.8421 25.4377 23.7907 25.4986C23.7378 25.5581 23.6844 25.6185 23.6302 25.6794C23.5208 25.8004 23.4066 25.9222 23.2863 26.0424C23.1674 26.1642 23.0416 26.2833 22.9112 26.4011C22.8465 26.4604 22.7786 26.5178 22.7119 26.5767C22.6427 26.6335 22.5751 26.6908 22.5023 26.7469C22.2213 26.9708 21.9085 27.1749 21.59 27.3532C21.2695 27.5308 20.9403 27.6886 20.6103 27.8259C20.2808 27.9646 19.9505 28.0841 19.6289 28.1907C19.3069 28.2961 18.9928 28.3874 18.6931 28.466C18.3933 28.5443 18.108 28.609 17.8441 28.6662C17.5804 28.7229 17.3365 28.7649 17.1207 28.8028C16.905 28.84 16.7154 28.8653 16.56 28.8867C16.4042 28.9078 16.2812 28.9199 16.1973 28.929C16.1134 28.9365 16.0688 28.9404 16.0688 28.9404C16.0675 28.9405 16.0664 28.9396 16.0664 28.9385C16.0663 28.9375 16.067 28.9365 16.068 28.9362Z" fill="white"/>
<path d="M49.1983 28.9501C49.1983 28.9501 49.1559 28.9469 49.0776 28.9371C49.0007 28.9264 48.8865 28.9114 48.7419 28.8843C48.5986 28.858 48.4235 28.8236 48.2258 28.7742C48.0268 28.7263 47.8039 28.6671 47.5637 28.5923C47.0834 28.4436 46.5325 28.2367 45.9632 27.9661C45.6787 27.8307 45.389 27.6808 45.1024 27.5152C45.0307 27.474 44.9586 27.4326 44.8875 27.3891C44.816 27.346 44.7441 27.3031 44.6737 27.2574C44.6035 27.2119 44.5318 27.1681 44.4623 27.1209L44.3573 27.0512L44.305 27.016L44.2787 26.9984L44.2505 26.9785L44.1494 26.9062L44.0989 26.8701L44.0475 26.831C43.9788 26.7785 43.9094 26.7266 43.8445 26.6729L43.7462 26.5931L43.6504 26.5108C43.5865 26.4563 43.5244 26.4005 43.4629 26.3444C43.3393 26.2332 43.2213 26.1182 43.1072 26.0029C42.9927 25.8878 42.8825 25.7718 42.7767 25.6551C42.3532 25.19 41.9965 24.7261 41.7091 24.3176C41.5653 24.1135 41.4398 23.9218 41.331 23.751C41.2211 23.5806 41.1316 23.4284 41.0581 23.303C40.9843 23.1777 40.9308 23.0767 40.8933 23.0084C40.8567 22.9399 40.8381 22.9023 40.8381 22.9023C40.8329 22.8914 40.8373 22.8786 40.8481 22.8732C40.8577 22.8688 40.8688 22.8715 40.8747 22.8793C40.8747 22.8793 40.9005 22.9119 40.9484 22.9729C40.9965 23.0336 41.0674 23.1225 41.1574 23.2357C41.2476 23.3487 41.3594 23.4842 41.4862 23.64C41.614 23.7949 41.7603 23.9678 41.9208 24.1551C42.2425 24.5289 42.6253 24.9576 43.0579 25.3908C43.1664 25.4984 43.2772 25.6073 43.3916 25.7147C43.5061 25.822 43.6235 25.929 43.7435 26.0338C43.8035 26.0864 43.8643 26.1386 43.9262 26.1892C43.9875 26.241 44.0504 26.2908 44.1135 26.3406C44.176 26.3918 44.2393 26.4383 44.3023 26.4859L44.3497 26.5217L44.4005 26.5575L44.502 26.629L44.7015 26.7649C44.7688 26.811 44.838 26.8539 44.9057 26.8986C45.0426 26.9858 45.1792 27.0731 45.317 27.1554C45.3854 27.1973 45.4545 27.2381 45.5238 27.2776C45.5922 27.3183 45.6608 27.3585 45.7294 27.3968C45.8665 27.4748 46.0036 27.5489 46.1387 27.6212C46.6801 27.9094 47.2015 28.1499 47.6566 28.3411C47.8848 28.4364 48.0944 28.5207 48.2828 28.5916C48.4713 28.6615 48.6358 28.7217 48.7724 28.7682C48.9104 28.8142 49.0179 28.8506 49.0922 28.8734C49.1665 28.8959 49.2063 28.908 49.2063 28.908C49.2182 28.9113 49.2249 28.9234 49.2209 28.9348C49.2182 28.9448 49.2076 28.9507 49.1983 28.9501Z" fill="white"/>
<path d="M24.4046 28.567C24.4046 28.567 24.4401 28.5005 24.516 28.381C24.5925 28.2621 24.7067 28.0877 24.8683 27.8776C25.0292 27.6672 25.2325 27.4162 25.4876 27.1472C25.7417 26.8772 26.0428 26.5846 26.3965 26.2925C26.7498 26.0003 27.1539 25.7068 27.6072 25.4348C28.0602 25.1626 28.5617 24.9115 29.1032 24.7043C29.3733 24.5996 29.6533 24.5066 29.941 24.4264C30.2286 24.3458 30.5237 24.2767 30.8238 24.2235C31.1239 24.1698 31.4291 24.1285 31.7365 24.103C32.0447 24.0774 32.3523 24.0654 32.6643 24.0665C32.7404 24.0673 32.8145 24.0673 32.8919 24.0696L33.1261 24.0783C33.2804 24.0869 33.4343 24.0962 33.5877 24.1104C33.8946 24.1373 34.1992 24.1791 34.4989 24.2333C35.0988 24.3404 35.6787 24.5035 36.2205 24.7094C36.7626 24.9152 37.2656 25.165 37.7187 25.4379C38.1721 25.7114 38.5753 26.0076 38.9259 26.3043C39.1006 26.453 39.2631 26.6008 39.4123 26.7471C39.5609 26.8936 39.6971 27.037 39.8212 27.1749C40.0704 27.4499 40.2673 27.7064 40.421 27.9223C40.5759 28.1376 40.6833 28.3161 40.7549 28.4383C40.8258 28.5609 40.858 28.6293 40.858 28.6293C40.8585 28.6303 40.858 28.6315 40.8572 28.6321C40.8561 28.6326 40.8549 28.6322 40.8544 28.6313C40.8542 28.6313 40.812 28.569 40.7264 28.4571C40.6414 28.3448 40.5102 28.1849 40.3367 27.9887C40.1626 27.7927 39.9414 27.5641 39.6762 27.3155C39.5428 27.1919 39.3979 27.0639 39.2407 26.9347C39.0839 26.8052 38.9164 26.6724 38.7362 26.5415C38.377 26.2783 37.9711 26.0173 37.5229 25.778C37.0754 25.538 36.5848 25.3208 36.0621 25.1417C35.8004 25.053 35.5315 24.9712 35.2559 24.9023C34.9802 24.8337 34.6984 24.7747 34.4122 24.7275C33.8391 24.6347 33.2527 24.5829 32.6584 24.5814C32.0718 24.577 31.481 24.622 30.9097 24.7147C30.6239 24.762 30.3421 24.8198 30.0664 24.8898C29.7913 24.9599 29.5223 25.0411 29.261 25.1309C28.7388 25.312 28.2481 25.5303 27.7995 25.7696C27.3505 26.0088 26.9425 26.2679 26.58 26.5274C26.2177 26.7874 25.8984 27.0458 25.6269 27.2882C25.3562 27.5316 25.1286 27.7543 24.9487 27.945C24.7693 28.1363 24.6323 28.2913 24.5431 28.4005C24.4532 28.5089 24.4082 28.5693 24.4082 28.5693C24.4074 28.5704 24.4061 28.5708 24.4051 28.5698C24.4043 28.5692 24.4041 28.5681 24.4046 28.567Z" fill="white"/>
<path d="M20.459 8.48047L58.773 8.75991V8.80289L20.459 9.0822V8.48047Z" fill="white"/>
<path d="M20.6636 8.22168C20.6636 8.22168 20.7012 8.6705 20.6749 9.34354C20.6512 10.0166 20.6194 10.9141 20.5876 11.8115C20.5598 12.7088 20.5322 13.6063 20.5113 14.2794C20.4928 14.9525 20.4805 15.4012 20.4805 15.4012H20.4371C20.4371 15.4012 20.4251 14.9525 20.4066 14.2794C20.3857 13.6063 20.3579 12.7088 20.3302 11.8115C20.2983 10.9141 20.2667 10.0166 20.2429 9.34354C20.2167 8.6705 20.1992 8.22168 20.1992 8.22168H20.6636Z" fill="white"/>
<path d="M19.1423 8.22168L18.9043 15.4012H18.8611L18.623 8.22168H19.1423Z" fill="white"/>
<path d="M41.1336 31.4254L41.0256 29.0781L41.0195 28.9473L41.1553 28.9492L49.0978 29.0566V29.0996L41.1553 29.2071L41.2851 29.0781L41.177 31.4254H41.1336Z" fill="white"/>
<path d="M16.1875 29.0557L24.0316 28.9483L24.1679 28.9463L24.1614 29.0772L24.0531 31.288H24.0098L23.9019 29.0772L24.0316 29.2061L16.1875 29.0987V29.0557Z" fill="white"/>
</g>
<path d="M71.2432 31L81.2273 8.6H86.3473L96.3633 31H90.9233L82.7313 11.224H84.7793L76.5553 31H71.2432ZM76.2352 26.2L77.6113 22.264H89.1313L90.5393 26.2H76.2352ZM98.6873 31V8.6H102.975L116.191 24.728H114.111V8.6H119.231V31H114.975L101.727 14.872H103.807V31H98.6873ZM131.157 31L121.493 8.6H127.093L135.541 28.44H132.245L140.821 8.6H145.973L136.277 31H131.157ZM147.844 31V8.6H153.028V31H147.844ZM158.344 31V8.6H163.528V26.776H174.76V31H158.344ZM194.079 31.384C192.287 31.384 190.569 31.1493 188.927 30.68C187.284 30.1893 185.961 29.56 184.959 28.792L186.719 24.888C187.679 25.5707 188.809 26.136 190.111 26.584C191.433 27.0107 192.767 27.224 194.111 27.224C195.135 27.224 195.956 27.128 196.575 26.936C197.215 26.7227 197.684 26.4347 197.983 26.072C198.281 25.7093 198.431 25.2933 198.431 24.824C198.431 24.2267 198.196 23.7573 197.727 23.416C197.257 23.0533 196.639 22.7653 195.871 22.552C195.103 22.3173 194.249 22.104 193.311 21.912C192.393 21.6987 191.465 21.4427 190.527 21.144C189.609 20.8453 188.767 20.4613 187.999 19.992C187.231 19.5227 186.601 18.904 186.111 18.136C185.641 17.368 185.407 16.3867 185.407 15.192C185.407 13.912 185.748 12.7493 186.431 11.704C187.135 10.6373 188.18 9.79467 189.567 9.176C190.975 8.536 192.735 8.216 194.847 8.216C196.255 8.216 197.641 8.38667 199.007 8.728C200.372 9.048 201.577 9.53867 202.623 10.2L201.023 14.136C199.977 13.5387 198.932 13.1013 197.887 12.824C196.841 12.5253 195.817 12.376 194.815 12.376C193.812 12.376 192.991 12.4933 192.351 12.728C191.711 12.9627 191.252 13.272 190.975 13.656C190.697 14.0187 190.559 14.4453 190.559 14.936C190.559 15.512 190.793 15.9813 191.263 16.344C191.732 16.6853 192.351 16.9627 193.119 17.176C193.887 17.3893 194.729 17.6027 195.647 17.816C196.585 18.0293 197.513 18.2747 198.431 18.552C199.369 18.8293 200.223 19.2027 200.991 19.672C201.759 20.1413 202.377 20.76 202.847 21.528C203.337 22.296 203.583 23.2667 203.583 24.44C203.583 25.6987 203.231 26.8507 202.527 27.896C201.823 28.9413 200.767 29.784 199.359 30.424C197.972 31.064 196.212 31.384 194.079 31.384ZM212.224 31V21.848L213.408 24.984L203.552 8.6H209.056L216.608 21.176H213.44L221.024 8.6H226.112L216.256 24.984L217.408 21.848V31H212.224ZM235.172 31.384C233.38 31.384 231.663 31.1493 230.02 30.68C228.378 30.1893 227.055 29.56 226.052 28.792L227.812 24.888C228.772 25.5707 229.903 26.136 231.204 26.584C232.527 27.0107 233.86 27.224 235.204 27.224C236.228 27.224 237.05 27.128 237.668 26.936C238.308 26.7227 238.778 26.4347 239.076 26.072C239.375 25.7093 239.524 25.2933 239.524 24.824C239.524 24.2267 239.29 23.7573 238.82 23.416C238.351 23.0533 237.732 22.7653 236.964 22.552C236.196 22.3173 235.343 22.104 234.404 21.912C233.487 21.6987 232.559 21.4427 231.62 21.144C230.703 20.8453 229.86 20.4613 229.092 19.992C228.324 19.5227 227.695 18.904 227.204 18.136C226.735 17.368 226.5 16.3867 226.5 15.192C226.5 13.912 226.842 12.7493 227.524 11.704C228.228 10.6373 229.274 9.79467 230.66 9.176C232.068 8.536 233.828 8.216 235.94 8.216C237.348 8.216 238.735 8.38667 240.1 8.728C241.466 9.048 242.671 9.53867 243.716 10.2L242.116 14.136C241.071 13.5387 240.026 13.1013 238.98 12.824C237.935 12.5253 236.911 12.376 235.908 12.376C234.906 12.376 234.084 12.4933 233.444 12.728C232.804 12.9627 232.346 13.272 232.068 13.656C231.791 14.0187 231.652 14.4453 231.652 14.936C231.652 15.512 231.887 15.9813 232.356 16.344C232.826 16.6853 233.444 16.9627 234.212 17.176C234.98 17.3893 235.823 17.6027 236.74 17.816C237.679 18.0293 238.607 18.2747 239.524 18.552C240.463 18.8293 241.316 19.2027 242.084 19.672C242.852 20.1413 243.471 20.76 243.94 21.528C244.431 22.296 244.676 23.2667 244.676 24.44C244.676 25.6987 244.324 26.8507 243.62 27.896C242.916 28.9413 241.86 29.784 240.452 30.424C239.066 31.064 237.306 31.384 235.172 31.384ZM252.546 31V12.824H245.378V8.6H264.898V12.824H257.73V31H252.546ZM272.455 17.624H283.239V21.656H272.455V17.624ZM272.839 26.84H285.031V31H267.687V8.6H284.615V12.76H272.839V26.84ZM289.156 31V8.6H293.444L302.98 24.408H300.708L310.084 8.6H314.34L314.404 31H309.54L309.508 16.056H310.404L302.916 28.632H300.58L292.932 16.056H294.02V31H289.156ZM327.079 31.384C325.287 31.384 323.569 31.1493 321.927 30.68C320.284 30.1893 318.961 29.56 317.959 28.792L319.719 24.888C320.679 25.5707 321.809 26.136 323.111 26.584C324.433 27.0107 325.767 27.224 327.111 27.224C328.135 27.224 328.956 27.128 329.575 26.936C330.215 26.7227 330.684 26.4347 330.983 26.072C331.281 25.7093 331.431 25.2933 331.431 24.824C331.431 24.2267 331.196 23.7573 330.727 23.416C330.257 23.0533 329.639 22.7653 328.871 22.552C328.103 22.3173 327.249 22.104 326.311 21.912C325.393 21.6987 324.465 21.4427 323.527 21.144C322.609 20.8453 321.767 20.4613 320.999 19.992C320.231 19.5227 319.601 18.904 319.111 18.136C318.641 17.368 318.407 16.3867 318.407 15.192C318.407 13.912 318.748 12.7493 319.431 11.704C320.135 10.6373 321.18 9.79467 322.567 9.176C323.975 8.536 325.735 8.216 327.847 8.216C329.255 8.216 330.641 8.38667 332.007 8.728C333.372 9.048 334.577 9.53867 335.623 10.2L334.023 14.136C332.977 13.5387 331.932 13.1013 330.887 12.824C329.841 12.5253 328.817 12.376 327.815 12.376C326.812 12.376 325.991 12.4933 325.351 12.728C324.711 12.9627 324.252 13.272 323.975 13.656C323.697 14.0187 323.559 14.4453 323.559 14.936C323.559 15.512 323.793 15.9813 324.263 16.344C324.732 16.6853 325.351 16.9627 326.119 17.176C326.887 17.3893 327.729 17.6027 328.647 17.816C329.585 18.0293 330.513 18.2747 331.431 18.552C332.369 18.8293 333.223 19.2027 333.991 19.672C334.759 20.1413 335.377 20.76 335.847 21.528C336.337 22.296 336.583 23.2667 336.583 24.44C336.583 25.6987 336.231 26.8507 335.527 27.896C334.823 28.9413 333.767 29.784 332.359 30.424C330.972 31.064 329.212 31.384 327.079 31.384Z" fill="white"/>
<defs>
<clipPath id="clip0_16_2957">
<rect width="61" height="26" fill="white" transform="translate(0 6.5)"/>
</clipPath>
</defs>
</svg>
